<?xml version="1.0" encoding="utf-8"?>
<!-- Generator: Adobe Illustrator 19.2.1, SVG Export Plug-In . SVG Version: 6.00 Build 0)  -->
<svg version="1.1" id="Layer_1" xmlns="http://www.w3.org/2000/svg" xmlns:xlink="http://www.w3.org/1999/xlink" x="0px" y="0px"
	 viewBox="0 0 500 500" style="enable-background:new 0 0 500 500;" xml:space="preserve">
<style type="text/css">
	.st0{fill:#FFFFFF;}
</style>
<path class="st0" d="M500,250.7c-27.6,0-50-22.4-50-50v0l0,0v-100c0-27.6-22.4-50-50-50h-50v250L150,50.8v0h-50
	c-27.6,0-50,22.4-50,50v100c0,27.6-22.4,50-50,50l0,0v0l0,0c27.6,0,50,22.4,50,50v100c0,27.6,22.4,50,50,50h50V200.8l200,249.9h50
	c27.6,0,50-22.4,50-50v-100l0,0v0C450,273.1,472.4,250.7,500,250.7L500,250.7L500,250.7L500,250.7z"/>
</svg>
